<?xml version="1.0" encoding="iso-8859-1"?>
<!-- Generator: Adobe Illustrator 18.0.0, SVG Export Plug-In . SVG Version: 6.00 Build 0)  -->
<!DOCTYPE svg PUBLIC "-//W3C//DTD SVG 1.1//EN" "http://www.w3.org/Graphics/SVG/1.1/DTD/svg11.dtd">
<svg version="1.1" id="Capa_1" xmlns="http://www.w3.org/2000/svg" xmlns:xlink="http://www.w3.org/1999/xlink" x="0px" y="0px"
	 viewBox="0 0 217.136 217.136" style="enable-background:new 0 0 217.136 217.136;" xml:space="preserve">
<path d="M194.451,43.881h-7.246c2.46-4.358,3.776-9.293,3.776-14.434c0-7.865-3.064-15.26-8.626-20.822
	C176.795,3.063,169.401,0,161.536,0c-7.864,0-15.259,3.063-20.82,8.625l-32.148,32.146L76.422,8.625C70.86,3.063,63.466,0,55.601,0
	c-7.865,0-15.259,3.063-20.822,8.625c-5.562,5.563-8.625,12.958-8.625,20.822c0,5.141,1.316,10.076,3.776,14.434h-7.245
	c-4.142,0-7.5,3.358-7.5,7.5v49.405c0,4.142,3.358,7.5,7.5,7.5h3.5v101.35c0,4.142,3.358,7.5,7.5,7.5h53.098h43.57h53.097
	c4.142,0,7.5-3.358,7.5-7.5v-101.35h3.501c4.142,0,7.5-3.358,7.5-7.5V51.381C201.951,47.239,198.593,43.881,194.451,43.881z
	 M30.185,93.287V58.881h49.098v34.405H30.185z M94.283,58.881h28.57v34.405h-28.57V58.881z M137.853,58.881h49.098v34.405h-49.098
	V58.881z M151.323,19.232c2.729-2.729,6.355-4.232,10.213-4.232c3.857,0,7.484,1.503,10.212,4.232
	c2.729,2.729,4.233,6.358,4.233,10.216c0,3.858-1.503,7.484-4.233,10.214c-2.719,2.72-6.342,4.218-10.201,4.218l-0.195-0.001
	c-0.033,0-0.067,0-0.1,0h-34.577L151.323,19.232z M45.386,19.232C48.115,16.503,51.742,15,55.601,15
	c3.858,0,7.485,1.503,10.214,4.232l24.646,24.646H55.885c-0.033,0-0.067,0-0.1,0l-0.195,0.001c-3.86,0-7.483-1.498-10.204-4.219
	c-2.729-2.728-4.231-6.355-4.231-10.213C41.154,25.589,42.658,21.961,45.386,19.232z M41.185,108.287h38.098v93.85H41.185V108.287z
	 M94.283,202.136v-93.85h28.57v93.85H94.283z M175.95,202.136h-38.097v-93.85h38.097V202.136z"/>
<g>
</g>
<g>
</g>
<g>
</g>
<g>
</g>
<g>
</g>
<g>
</g>
<g>
</g>
<g>
</g>
<g>
</g>
<g>
</g>
<g>
</g>
<g>
</g>
<g>
</g>
<g>
</g>
<g>
</g>
</svg>
