<?xml version="1.0" encoding="UTF-8" standalone="no"?>
<svg
   xmlns:dc="http://purl.org/dc/elements/1.1/"
   xmlns:cc="http://creativecommons.org/ns#"
   xmlns:rdf="http://www.w3.org/1999/02/22-rdf-syntax-ns#"
   xmlns:svg="http://www.w3.org/2000/svg"
   xmlns="http://www.w3.org/2000/svg"
   xmlns:sodipodi="http://sodipodi.sourceforge.net/DTD/sodipodi-0.dtd"
   xmlns:inkscape="http://www.inkscape.org/namespaces/inkscape"
   version="1.1"
   id="Capa_1"
   x="0px"
   y="0px"
   viewBox="0 0 217.136 217.136"
   style="enable-background:new 0 0 217.136 217.136;"
   xml:space="preserve"
   sodipodi:docname="logohover.svg"
   inkscape:version="1.0.1 (3bc2e813f5, 2020-09-07)"><metadata
   id="metadata86"><rdf:RDF><cc:Work
       rdf:about=""><dc:format>image/svg+xml</dc:format><dc:type
         rdf:resource="http://purl.org/dc/dcmitype/StillImage" /><dc:title></dc:title></cc:Work></rdf:RDF></metadata><defs
   id="defs84" /><sodipodi:namedview
   pagecolor="#ffffff"
   bordercolor="#666666"
   borderopacity="1"
   objecttolerance="10"
   gridtolerance="10"
   guidetolerance="10"
   inkscape:pageopacity="0"
   inkscape:pageshadow="2"
   inkscape:window-width="1920"
   inkscape:window-height="1017"
   id="namedview82"
   showgrid="false"
   inkscape:zoom="3.9145973"
   inkscape:cx="108.568"
   inkscape:cy="98.349835"
   inkscape:window-x="-8"
   inkscape:window-y="-8"
   inkscape:window-maximized="1"
   inkscape:current-layer="Capa_1" />
<path
   d="M194.451,43.881h-7.246c2.46-4.358,3.776-9.293,3.776-14.434c0-7.865-3.064-15.26-8.626-20.822  C176.795,3.063,169.401,0,161.536,0c-7.864,0-15.259,3.063-20.82,8.625l-32.148,32.146L76.422,8.625C70.86,3.063,63.466,0,55.601,0  c-7.865,0-15.259,3.063-20.822,8.625c-5.562,5.563-8.625,12.958-8.625,20.822c0,5.141,1.316,10.076,3.776,14.434h-7.245  c-4.142,0-7.5,3.358-7.5,7.5v49.405c0,4.142,3.358,7.5,7.5,7.5h3.5v101.35c0,4.142,3.358,7.5,7.5,7.5h53.098h43.57h53.097  c4.142,0,7.5-3.358,7.5-7.5v-101.35h3.501c4.142,0,7.5-3.358,7.5-7.5V51.381C201.951,47.239,198.593,43.881,194.451,43.881z   M30.185,93.287V58.881h49.098v34.405H30.185z M94.283,58.881h28.57v34.405h-28.57V58.881z M137.853,58.881h49.098v34.405h-49.098  V58.881z M151.323,19.232c2.729-2.729,6.355-4.232,10.213-4.232c3.857,0,7.484,1.503,10.212,4.232  c2.729,2.729,4.233,6.358,4.233,10.216c0,3.858-1.503,7.484-4.233,10.214c-2.719,2.72-6.342,4.218-10.201,4.218l-0.195-0.001  c-0.033,0-0.067,0-0.1,0h-34.577L151.323,19.232z M45.386,19.232C48.115,16.503,51.742,15,55.601,15  c3.858,0,7.485,1.503,10.214,4.232l24.646,24.646H55.885c-0.033,0-0.067,0-0.1,0l-0.195,0.001c-3.86,0-7.483-1.498-10.204-4.219  c-2.729-2.728-4.231-6.355-4.231-10.213C41.154,25.589,42.658,21.961,45.386,19.232z M41.185,108.287h38.098v93.85H41.185V108.287z   M94.283,202.136v-93.85h28.57v93.85H94.283z M175.95,202.136h-38.097v-93.85h38.097V202.136z"
   id="path49" />
<g
   id="g51">
</g>
<g
   id="g53">
</g>
<g
   id="g55">
</g>
<g
   id="g57">
</g>
<g
   id="g59">
</g>
<g
   id="g61">
</g>
<g
   id="g63">
</g>
<g
   id="g65">
</g>
<g
   id="g67">
</g>
<g
   id="g69">
</g>
<g
   id="g71">
</g>
<g
   id="g73">
</g>
<g
   id="g75">
</g>
<g
   id="g77">
</g>
<g
   id="g79">
</g>
<path
   style="fill:#ff0000;stroke-width:0.255454"
   d="m 41.383567,155.18838 v -46.87583 h 18.903605 18.903604 v 46.87583 46.87583 H 60.287172 41.383567 Z"
   id="path88" /><path
   style="fill:#ff0000;stroke-width:0.255454"
   d="m 137.94522,155.18838 v -46.87583 h 18.90361 18.9036 v 46.87583 46.87583 h -18.9036 -18.90361 z"
   id="path90" /><path
   style="fill:#ff0000;stroke-width:0.255454"
   d="M 137.94522,76.125327 V 59.009901 h 24.39587 24.39587 v 17.115426 17.115426 h -24.39587 -24.39587 z"
   id="path92" /><path
   style="fill:#008000;stroke-width:0.255454"
   d="M 30.39904,76.125327 V 59.009901 H 54.794908 79.190776 V 76.125327 93.240753 H 54.794908 30.39904 Z"
   id="path94" /><path
   style="fill:#008000;stroke-width:0.255454"
   d="M 94.518024,155.18838 V 108.31255 H 108.568 122.61798 v 46.87583 46.87583 H 108.568 94.518024 Z"
   id="path96" /><path
   style="fill:#008000;stroke-width:0.255454"
   d="M 94.518024,76.125327 V 59.009901 H 108.568 122.61798 V 76.125327 93.240753 H 108.568 94.518024 Z"
   id="path98" /><path
   style="fill:#ff0000;stroke-width:0.255454"
   d="M 30.39904,76.125327 V 59.009901 H 54.794908 79.190776 V 76.125327 93.240753 H 54.794908 30.39904 Z"
   id="path100" /></svg>
